# xmcd CD database file
#
# Track frame offsets:
#	150
#	12875
#	24377
#	38315
#	53842
#	67140
#	82575
#	94910
#	106375
#	118427
#	132290
#	144565
#
# Disc length: 2088 seconds
#
# Revision: 2
# Processed by: cddbd v1.5.2PL0 Copyright (c) Steve Scherf et al.
# Submitted via: CDex 1.51
#
DISCID=9908260c
DTITLE=Muddy Waters - They Call Me Muddy Waters
DYEAR=1900
DGENRE=Blues
TTITLE0=When The Eagle Flies
TTITLE1=Crawlin' Kingsnake
TTITLE2=County Jail
TTITLE3=It's All Over
TTITLE4=Bird Nest On The Ground
TTITLE5=They Call Me Muddy Waters
TTITLE6=Find Yourself Another Fool
TTITLE7=Kinfolk's Blues
TTITLE8=Making Friends
TTITLE9=Blind Man
TTITLE10=Two Steps Forward
TTITLE11=Howlin' Wolf
EXTD=
EXTT0=
EXTT1=
EXTT2=
EXTT3=
EXTT4=
EXTT5=
EXTT6=
EXTT7=
EXTT8=
EXTT9=
EXTT10=
EXTT11=
PLAYORDER=
